# xmcd CD database file
#
# Track frame offsets:
#	150
#	12004
#	24846
#	37489
#	52300
#	60968
#	70738
#	83747
#	91741
#	110601
#	124905
#	137520
#	149595
#	168666
#
# Disc length: 2481 seconds
#
# Revision: 0
# Processed by: cddbd v1.5.2PL0 Copyright (c) Steve Scherf et al.
# Submitted via: CDex 1.51
#
DISCID=c009af0e
DTITLE=Saci dasi - Moj prijatelj
DYEAR=2004
DGENRE=New Age
TTITLE0=Moj Prijatelj
TTITLE1=Damodar
TTITLE2=O Sri Radhika
TTITLE3=Kdo ve?
TTITLE4=Tulasi devi
TTITLE5=Tulasi Pudza
TTITLE6=Jaz pa pojdem
TTITLE7=Vrindavana
TTITLE8=Na pasi
TTITLE9=Duhovni ucitelj
TTITLE10=Narad Muni
TTITLE11=Maha Mantra
TTITLE12=Kako sluzimo Krisni?
TTITLE13=Hvala ti
EXTD=YEAR: 2004
EXTT0=
EXTT1=
EXTT2=
EXTT3=
EXTT4=
EXTT5=
EXTT6=
EXTT7=
EXTT8=
EXTT9=
EXTT10=
EXTT11=
EXTT12=
EXTT13=
PLAYORDER=
